<?xml version="1.0" encoding="UTF-8"?>
<svg width="103px" height="133px" viewBox="0 0 103 133" version="1.1" xmlns="http://www.w3.org/2000/svg" xmlns:xlink="http://www.w3.org/1999/xlink">
    <title>LogoGroup</title>
    <defs>
        <linearGradient x1="25.6072167%" y1="57.3193072%" x2="51.6348288%" y2="43.2514589%" id="linearGradient-1">
            <stop stop-color="#FFFFFF" offset="0%"></stop>
            <stop stop-color="#FFEDED" offset="100%"></stop>
        </linearGradient>
    </defs>
    <g id="English" stroke="none" stroke-width="1" fill="none" fill-rule="evenodd">
        <g id="0.1-Launcher" transform="translate(-156.000000, -261.000000)">
            <g id="LogoGroup" transform="translate(156.000000, 261.000000)">
                <g id="logo" transform="translate(0.500000, 0.288889)">
                    <path d="M61.0312469,40.3813309 L41.0610257,40.3813309 C38.8289352,40.3813309 36.7338923,39.3041708 35.4339069,37.4888278 L10.356924,2.46221149 C7.12314587,-2.05465728 0,0.23404291 0,5.78993677 L0,105.073581 C0,106.137425 0.86191729,107 1.92562427,107 L14.9517993,107 C18.0687996,107 20.595255,104.4722 20.595255,101.354217 L20.595255,77.7892608 C30.5392211,77.7892608 39.5604607,83.6190602 43.6488953,92.6876034 L43.9102841,93.2674962 C45.187277,96.0994676 48.0044668,97.9202584 51.1102734,97.9202584 L51.3293075,97.9202584 C54.1673721,97.9202584 56.7416277,96.2565471 57.908801,93.6685181 L58.3508022,92.6876034 C62.4392368,83.6190602 71.4604764,77.7892608 81.4044425,77.7892608 L81.4044425,101.354217 C81.4044425,104.4722 83.9308978,107 87.0475956,107 L100.074073,107 C101.137478,107 102,106.137425 102,105.073581 L102,5.53751996 C102,0.0358018859 94.6865607,-2.18631353 91.0845996,2.70554856 L66.5824299,37.5932449 C65.2760913,39.3474509 63.2179574,40.3813309 61.0312469,40.3813309" id="Fill-1" fill="url(#linearGradient-1)"></path>
                    <path d="M102,5.51733913 L102,105.075068 C102,106.137413 101.135807,107 100.068452,107 L87.1883341,107 C83.9977932,107 81.4109748,104.417988 81.4109748,101.233073 L81.4109748,77.8808625 L81.3563941,77.8808625 L81.3563941,77.7900638 C76.0590411,77.7900638 71.0224622,79.4365466 66.8500765,82.3451311 C64.5971095,83.9129216 62.5927876,85.8529868 60.9371753,88.0957143 C60.8856269,88.1683532 60.8340786,88.2379656 60.7794979,88.3106045 C59.8000789,89.6362653 58.9483179,91.0618046 58.2414988,92.5660361 C58.020144,93.032136 57.8112215,93.5070131 57.6229184,93.9915754 C56.4251769,96.1313977 54.232855,97.6447091 51.6709011,97.9049986 L51.6615011,97.9049986 C51.5129205,97.9140785 51.3643399,97.9201317 51.212727,97.9201317 L50.9944045,97.9201317 C48.2135216,97.9201317 45.6633934,96.4700768 44.2415681,94.1392746 C44.2403552,94.1374586 44.2394455,94.13534 44.2385359,94.1338267 C44.0017166,93.5224489 43.7412457,92.9259015 43.4592458,92.342066 C42.3130526,89.9722204 40.8090532,87.8021319 39.0200215,85.9104927 C39.013957,85.907466 39.011228,85.9014128 39.0078925,85.8983862 C38.9715054,85.861764 38.9381506,85.8227206 38.9017635,85.7860985 C38.8866022,85.7682414 38.8684087,85.7531083 38.8532474,85.7349485 C37.63428,84.4456073 36.2879579,83.292464 34.8385391,82.2906519 C32.3460238,80.671106 32.3957528,77.0046552 34.9395132,75.4665255 C43.0602008,70.5570408 50.8276304,59.7180994 50.8276304,59.7180994 L64.5213031,40.3810066 L65.8251736,38.5377934 L65.8251736,38.5377934 C66.1678187,38.1745986 66.4589154,37.7660046 66.6923992,37.321091 C66.6923992,37.321091 66.6923992,37.321091 66.6927024,37.321091 L67.4322699,36.2708529 L81.4109748,16.534246 L91.8328422,1.81880613 C91.8328422,1.81880613 91.8328422,1.81880613 91.8331454,1.81880613 C95.6140667,-1.870647 101.984839,0.399320062 102,5.51733913" id="Fill-4" fill="#FFFFFF"></path>
                </g>
            </g>
        </g>
    </g>
</svg>