<?xml version="1.0" encoding="UTF-8"?>
<svg width="15px" height="16px" viewBox="0 0 15 16" version="1.1" xmlns="http://www.w3.org/2000/svg" xmlns:xlink="http://www.w3.org/1999/xlink">
    <title>Mask Copy 3</title>
    <g id="Symbols" stroke="none" stroke-width="1" fill="none" fill-rule="evenodd">
        <g id="Mask-Copy-3" fill="#FFFFFF">
            <path d="M8.97518337,6.03832985 L6.03838613,6.03832985 C5.71013753,6.03832985 5.40204299,5.87725919 5.21086866,5.60580603 L1.52307706,0.368181157 C1.04752145,-0.307238472 0,0.0349970707 0,0.865784938 L0,15.7119374 C0,15.8710168 0.126752543,16 0.28318004,16 L2.19879402,16 C2.65717642,16 3.02871397,15.6220112 3.02871397,15.1557707 L3.02871397,11.632039 C4.49106192,11.632039 5.81771481,12.5037847 6.41895519,13.8598285 L6.45739471,13.9465415 C6.64518779,14.3700138 7.05948041,14.6422816 7.51621667,14.6422816 L7.54842757,14.6422816 C7.96579001,14.6422816 8.34435701,14.3935024 8.51600015,14.0065074 L8.58100032,13.8598285 C9.1822407,12.5037847 10.5088936,11.632039 11.9712415,11.632039 L11.9712415,15.1557707 C11.9712415,15.6220112 12.3427791,16 12.801117,16 L14.7167755,16 C14.8731585,16 15,15.8710168 15,15.7119374 L15,0.828040367 C15,0.00535355304 13.9244942,-0.326925388 13.3947941,0.404568009 L9.79153381,5.62141979 C9.59942519,5.88373098 9.29675844,6.03832985 8.97518337,6.03832985"></path>
        </g>
    </g>
</svg>