<?xml version="1.0" encoding="UTF-8"?>
<svg width="22px" height="21px" viewBox="0 0 22 21" version="1.1" xmlns="http://www.w3.org/2000/svg" xmlns:xlink="http://www.w3.org/1999/xlink">
    <title>Group</title>
    <g id="Symbols" stroke="none" stroke-width="1" fill="none" fill-rule="evenodd">
        <g id="Shape" fill="#FFFFFF" fill-rule="nonzero">
            <g id="Group">
                <path d="M19.95,10.49965 C19.3704,10.49965 18.9,10.9693657 18.9,11.550385 C18.9,11.6735891 18.9,11.8996967 18.9,11.8996967 L18.9,17.4991833 C18.9,18.2734091 18.2735,18.89993 17.5,18.89993 L3.5,18.89993 C2.72650002,18.89993 2.1,18.2734091 2.1,17.4991833 L2.1,3.49941666 C2.1,2.7265909 2.7265,2.09936999 3.5,2.09936999 L9.10000002,2.09936999 C9.10000002,2.09936999 9.32680002,2.09936999 9.45000003,2.09936999 C10.0296,2.09936999 10.5,1.6289543 10.5,1.050035 C10.5,0.469015627 10.0296,0 9.45000001,0 C9.3268,0 9.1,0 9.1,0 L2.8,0 C1.2537,0 0,1.25374179 0,2.79939331 L0,18.1999067 C0,19.7469582 1.2537,21 2.8,21 L18.2,21 C19.7463,21 21,19.7462582 21,18.1992066 L21,11.8989966 C21,11.8989966 21,11.6728891 21,11.549685 C21,10.9693657 20.5296,10.49965 19.95,10.49965 Z" id="Shape"></path>
                <path d="M21.6772642,4.07359307 L19.0809885,1.33982683 C18.6506742,0.886724388 17.9531264,0.886724388 17.5234972,1.33982683 C17.0931828,1.79292928 17.0931828,2.52597402 17.5234972,2.97979798 L18.3964598,3.89898989 L16.1852743,3.89898989 C11.4456494,3.89898989 7.55500453,7.65800866 7.01642636,12.495671 C6.96435011,12.6255411 7.05274271,13.2215007 7.05274271,13.2215007 C7.23021312,13.6298701 7.51594734,14 7.96270683,14 C8.91583946,14 9.00765811,13.2784993 9.00765811,13.2784993 C9.18786939,9.26334777 12.3275197,6.06421357 16.1852743,6.06421357 L20.6391651,6.06421355 C20.6391651,6.06421355 20.8166355,6.04978353 20.9063985,6.04978353 C21.1852806,6.04906203 21.4641627,5.93795091 21.6772642,5.71428569 C22.1075786,5.26046175 22.1075786,4.52669552 21.6772642,4.07359307 Z" id="Shape"></path>
            </g>
        </g>
    </g>
</svg>